<svg width="318" height="130" viewBox="0 0 318 130" fill="none" xmlns="http://www.w3.org/2000/svg">
<path d="M302.545 41.9681C302.252 41.4629 301.832 41.0435 301.325 40.752C300.819 40.4604 300.245 40.307 299.661 40.307C299.077 40.307 298.503 40.4604 297.997 40.752C297.491 41.0435 297.071 41.4629 296.777 41.9681L283.441 65.306C283.149 65.8126 282.995 66.3872 282.995 66.9722C282.995 67.5571 283.148 68.1318 283.441 68.6385C283.733 69.1453 284.153 69.5662 284.66 69.8591C285.166 70.1519 285.74 70.3064 286.325 70.307H312.997C313.582 70.3064 314.157 70.1519 314.663 69.8591C315.169 69.5662 315.59 69.1453 315.882 68.6385C316.174 68.1318 316.328 67.5571 316.328 66.9722C316.328 66.3872 316.174 65.8126 315.881 65.306L302.545 41.9681Z" fill="#5F53EF" stroke="#252525" stroke-width="2" stroke-linecap="round" stroke-linejoin="round"/>
<path d="M245.221 42.2956C245.483 41.7022 245.912 41.198 246.455 40.8448C246.999 40.4916 247.634 40.3047 248.283 40.307C248.931 40.3093 249.565 40.5007 250.106 40.8577C250.647 41.2148 251.072 41.722 251.33 42.3172" stroke="#252525" stroke-width="2" stroke-linecap="round" stroke-linejoin="round"/>
<path d="M251.603 70.3003H254.935" stroke="#252525" stroke-width="2" stroke-linecap="round" stroke-linejoin="round"/>
<path d="M254.726 48.2108L256.392 51.0967" stroke="#252525" stroke-width="2" stroke-linecap="round" stroke-linejoin="round"/>
<path d="M259.683 56.8903L261.349 59.7762" stroke="#252525" stroke-width="2" stroke-linecap="round" stroke-linejoin="round"/>
<path d="M264.64 65.6014C264.87 66.1106 264.968 66.6696 264.926 67.2268C264.884 67.784 264.702 68.3217 264.398 68.7903C264.093 69.2588 263.676 69.6433 263.184 69.9084C262.692 70.1734 262.141 70.3105 261.582 70.3069" stroke="#252525" stroke-width="2" stroke-linecap="round" stroke-linejoin="round"/>
<path d="M234.98 70.3002C234.418 70.3069 233.863 70.1709 233.367 69.905C232.871 69.6392 232.45 69.252 232.144 68.7798C231.838 68.3075 231.657 67.7654 231.617 67.2041C231.577 66.6428 231.68 66.0806 231.916 65.5698" stroke="#252525" stroke-width="2" stroke-linecap="round" stroke-linejoin="round"/>
<path d="M236.833 56.8903L235.167 59.7762" stroke="#252525" stroke-width="2" stroke-linecap="round" stroke-linejoin="round"/>
<path d="M241.605 70.3003H244.938" stroke="#252525" stroke-width="2" stroke-linecap="round" stroke-linejoin="round"/>
<path d="M241.775 48.2108L240.109 51.0967" stroke="#252525" stroke-width="2" stroke-linecap="round" stroke-linejoin="round"/>
<path d="M271.074 91.8466C271.334 91.2533 271.761 90.7491 272.302 90.3959C272.843 90.0427 273.474 89.8558 274.119 89.8581C274.764 89.8604 275.395 90.0518 275.933 90.4088C276.471 90.7659 276.895 91.2731 277.15 91.8683" stroke="#252525" stroke-width="2" stroke-linecap="round" stroke-linejoin="round"/>
<path d="M277.422 119.851H280.737" stroke="#252525" stroke-width="2" stroke-linecap="round" stroke-linejoin="round"/>
<path d="M280.528 97.7618L282.186 100.648" stroke="#252525" stroke-width="2" stroke-linecap="round" stroke-linejoin="round"/>
<path d="M285.459 106.441L287.117 109.327" stroke="#252525" stroke-width="2" stroke-linecap="round" stroke-linejoin="round"/>
<path d="M290.39 115.153C290.619 115.662 290.717 116.221 290.675 116.778C290.633 117.335 290.452 117.873 290.149 118.341C289.846 118.81 289.431 119.194 288.942 119.459C288.452 119.724 287.904 119.862 287.349 119.858" stroke="#252525" stroke-width="2" stroke-linecap="round" stroke-linejoin="round"/>
<path d="M260.888 119.851C260.328 119.858 259.776 119.722 259.283 119.456C258.789 119.19 258.371 118.803 258.067 118.331C257.762 117.858 257.582 117.316 257.542 116.755C257.503 116.194 257.605 115.632 257.84 115.121" stroke="#252525" stroke-width="2" stroke-linecap="round" stroke-linejoin="round"/>
<path d="M262.731 106.441L261.073 109.327" stroke="#252525" stroke-width="2" stroke-linecap="round" stroke-linejoin="round"/>
<path d="M267.478 119.851H270.793" stroke="#252525" stroke-width="2" stroke-linecap="round" stroke-linejoin="round"/>
<path d="M267.647 97.7618L265.989 100.648" stroke="#252525" stroke-width="2" stroke-linecap="round" stroke-linejoin="round"/>
<path d="M251.307 107.625C251.047 108.218 250.62 108.722 250.079 109.076C249.539 109.429 248.907 109.616 248.262 109.614C247.617 109.611 246.987 109.42 246.448 109.063C245.91 108.706 245.487 108.198 245.231 107.603" stroke="#252525" stroke-width="2" stroke-linecap="round" stroke-linejoin="round"/>
<path d="M244.959 79.6202H241.644" stroke="#252525" stroke-width="2" stroke-linecap="round" stroke-linejoin="round"/>
<path d="M241.853 101.71L240.196 98.8238" stroke="#252525" stroke-width="2" stroke-linecap="round" stroke-linejoin="round"/>
<path d="M236.922 93.0302L235.265 90.1442" stroke="#252525" stroke-width="2" stroke-linecap="round" stroke-linejoin="round"/>
<path d="M231.991 84.319C231.762 83.8098 231.664 83.2509 231.707 82.6937C231.749 82.1365 231.929 81.5988 232.232 81.1302C232.535 80.6616 232.95 80.2771 233.44 80.0121C233.929 79.7471 234.477 79.61 235.033 79.6135" stroke="#252525" stroke-width="2" stroke-linecap="round" stroke-linejoin="round"/>
<path d="M261.494 79.6203C262.053 79.6137 262.605 79.7496 263.099 80.0155C263.592 80.2814 264.01 80.6685 264.315 81.1408C264.619 81.6131 264.799 82.1551 264.839 82.7164C264.879 83.2777 264.776 83.84 264.542 84.3508" stroke="#252525" stroke-width="2" stroke-linecap="round" stroke-linejoin="round"/>
<path d="M259.65 93.0302L261.308 90.1442" stroke="#252525" stroke-width="2" stroke-linecap="round" stroke-linejoin="round"/>
<path d="M254.904 79.6202H251.589" stroke="#252525" stroke-width="2" stroke-linecap="round" stroke-linejoin="round"/>
<path d="M254.735 101.71L256.392 98.8238" stroke="#252525" stroke-width="2" stroke-linecap="round" stroke-linejoin="round"/>
<path d="M300.459 31C308.743 31 315.459 24.2843 315.459 16C315.459 7.71573 308.743 1 300.459 1C292.175 1 285.459 7.71573 285.459 16C285.459 24.2843 292.175 31 300.459 31Z" fill="#5F53EF" stroke="#252525" stroke-width="2" stroke-linecap="round" stroke-linejoin="round"/>
<path d="M302.545 107.952C302.252 108.458 301.832 108.877 301.325 109.169C300.819 109.46 300.245 109.614 299.661 109.614C299.077 109.614 298.503 109.46 297.997 109.169C297.491 108.877 297.071 108.458 296.777 107.952L283.441 84.6145C283.149 84.1079 282.995 83.5333 282.995 82.9484C282.995 82.3634 283.148 81.7887 283.441 81.282C283.733 80.7753 284.153 80.3543 284.66 80.0615C285.166 79.7686 285.74 79.6141 286.325 79.6135H312.997C313.582 79.6141 314.157 79.7686 314.663 80.0615C315.169 80.3543 315.59 80.7753 315.882 81.282C316.174 81.7887 316.328 82.3634 316.328 82.9484C316.328 83.5333 316.174 84.1079 315.881 84.6145L302.545 107.952Z" fill="#5F53EF" stroke="#252525" stroke-width="2" stroke-linecap="round" stroke-linejoin="round"/>
<path d="M23.616 104.124C25.6 104.124 27.552 103.932 29.472 103.548C31.456 103.1 33.216 102.396 34.752 101.436C36.288 100.476 37.536 99.2278 38.496 97.6918C39.456 96.0918 39.936 94.1398 39.936 91.8358C39.936 90.2358 39.616 88.8598 38.976 87.7078C38.4 86.4918 37.568 85.4358 36.48 84.5398C35.456 83.5798 34.208 82.7158 32.736 81.9478C31.328 81.1158 29.76 80.2518 28.032 79.3558C26.56 78.5878 25.056 77.7558 23.52 76.8598C22.048 75.9638 20.704 74.8758 19.488 73.5958C18.336 72.2518 17.376 70.6838 16.608 68.8918C15.904 67.0998 15.552 64.9558 15.552 62.4598C15.552 59.5798 16.096 56.9238 17.184 54.4918C18.336 52.0598 20 49.9798 22.176 48.2518C24.352 46.4598 27.008 45.0838 30.144 44.1238C33.344 43.1638 36.992 42.6838 41.088 42.6838C43.008 42.6838 44.832 42.8438 46.56 43.1638C48.288 43.4198 49.856 43.7718 51.264 44.2198C52.736 44.6678 54.016 45.1478 55.104 45.6598C56.192 46.1078 56.992 46.5238 57.504 46.9078L53.184 54.2038C52.096 53.3078 50.336 52.5078 47.904 51.8038C45.536 51.0358 42.72 50.6518 39.456 50.6518C37.408 50.6518 35.488 50.8758 33.696 51.3238C31.968 51.7078 30.464 52.3478 29.184 53.2438C27.904 54.1398 26.88 55.2918 26.112 56.6998C25.344 58.0438 24.96 59.6758 24.96 61.5958C24.96 63.2598 25.216 64.6678 25.728 65.8198C26.24 66.9078 26.944 67.8998 27.84 68.7958C28.736 69.6278 29.824 70.3958 31.104 71.0998C32.448 71.8038 33.888 72.5398 35.424 73.3078C37.344 74.2678 39.136 75.2598 40.8 76.2838C42.528 77.2438 44.032 78.3958 45.312 79.7398C46.592 81.0838 47.584 82.6518 48.288 84.4438C49.056 86.2358 49.44 88.4118 49.44 90.9718C49.44 94.4918 48.736 97.5958 47.328 100.284C45.984 102.908 44.096 105.116 41.664 106.908C39.296 108.636 36.448 109.948 33.12 110.844C29.856 111.74 26.304 112.188 22.464 112.188C19.904 112.188 17.568 111.996 15.456 111.612C13.408 111.292 11.584 110.876 9.984 110.364C8.448 109.852 7.136 109.34 6.048 108.828C4.96 108.252 4.128 107.74 3.552 107.292L7.872 99.7078C9.088 100.54 11.008 101.5 13.632 102.588C16.256 103.612 19.584 104.124 23.616 104.124ZM70.2338 88.7638C69.9138 90.1718 69.5938 91.5478 69.2738 92.8918C68.9538 94.2358 68.7938 95.5158 68.7938 96.7318C68.7938 98.9078 69.3058 100.636 70.3298 101.916C71.4178 103.196 73.4018 103.996 76.2818 104.316L74.2657 111.612C71.6418 111.548 69.4018 111.164 67.5458 110.46C65.7538 109.692 64.2818 108.7 63.1298 107.484C62.0418 106.268 61.2418 104.828 60.7298 103.164C60.2178 101.5 59.9618 99.6758 59.9618 97.6918C59.9618 96.2198 60.0898 94.6838 60.3458 93.0838C60.6018 91.4838 60.9538 89.8198 61.4018 88.0918L73.4978 37.7878L82.8098 36.2518L70.2338 88.7638ZM116.472 111.324C116.152 110.62 115.832 109.852 115.512 109.02C115.192 108.124 114.936 107.196 114.744 106.236C113.336 107.516 111.448 108.796 109.08 110.076C106.712 111.356 103.8 111.996 100.344 111.996C97.528 111.996 95.096 111.548 93.048 110.652C91.064 109.756 89.432 108.508 88.152 106.908C86.872 105.308 85.912 103.42 85.272 101.244C84.696 99.0678 84.408 96.6678 84.408 94.0438C84.408 89.7558 85.112 85.5638 86.52 81.4678C87.992 77.3718 90.168 73.7238 93.048 70.5238C95.928 67.3238 99.544 64.7318 103.896 62.7478C108.248 60.7638 113.336 59.7718 119.16 59.7718C120.888 59.7718 122.904 59.9638 125.208 60.3478C127.512 60.7318 129.496 61.3718 131.16 62.2678L123.768 92.4118C123.448 93.8838 123.16 95.2918 122.904 96.6358C122.712 97.9798 122.616 99.3878 122.616 100.86C122.616 102.332 122.744 103.836 123 105.372C123.256 106.844 123.704 108.444 124.344 110.172L116.472 111.324ZM102.168 104.412C104.856 104.412 107.16 103.836 109.08 102.684C111 101.532 112.664 100.188 114.072 98.6518C114.136 97.5638 114.232 96.4438 114.36 95.2918C114.552 94.0758 114.776 92.8598 115.032 91.6438L120.792 67.8358C120.472 67.7078 119.928 67.6118 119.16 67.5478C118.456 67.4838 117.816 67.4518 117.24 67.4518C113.592 67.4518 110.296 68.1558 107.352 69.5638C104.408 70.9718 101.88 72.8598 99.768 75.2278C97.72 77.5318 96.12 80.2518 94.968 83.3878C93.88 86.4598 93.336 89.6918 93.336 93.0838C93.336 94.4278 93.464 95.8038 93.72 97.2118C93.976 98.5558 94.424 99.7718 95.064 100.86C95.768 101.884 96.664 102.748 97.752 103.452C98.904 104.092 100.376 104.412 102.168 104.412ZM146.995 104.508C148.339 104.508 149.683 104.38 151.027 104.124C152.435 103.868 153.651 103.452 154.675 102.876C155.763 102.3 156.627 101.532 157.267 100.572C157.971 99.5478 158.323 98.2998 158.323 96.8278C158.323 95.8678 158.163 95.0358 157.843 94.3318C157.523 93.5638 157.011 92.8598 156.307 92.2198C155.603 91.5798 154.707 90.9718 153.619 90.3958C152.595 89.7558 151.347 89.0518 149.875 88.2838C148.403 87.5798 147.059 86.8758 145.843 86.1718C144.627 85.4678 143.539 84.6358 142.579 83.6758C141.683 82.7158 140.979 81.5958 140.467 80.3158C139.955 78.9718 139.699 77.3718 139.699 75.5158C139.699 70.7158 141.427 66.8758 144.883 63.9958C148.339 61.0518 153.363 59.5798 159.955 59.5798C163.027 59.5798 165.715 59.8998 168.019 60.5398C170.387 61.1158 172.019 61.6598 172.915 62.1718L169.555 69.4678C168.659 68.9558 167.219 68.4118 165.235 67.8358C163.251 67.2598 161.043 66.9718 158.611 66.9718C157.395 66.9718 156.179 67.0998 154.963 67.3558C153.747 67.6118 152.627 68.0598 151.603 68.6998C150.643 69.2758 149.843 70.0758 149.203 71.0998C148.627 72.0598 148.339 73.2438 148.339 74.6518C148.339 76.3798 149.011 77.8198 150.355 78.9718C151.699 80.0598 153.715 81.2118 156.403 82.4278C158.067 83.1958 159.539 83.9958 160.819 84.8278C162.163 85.5958 163.283 86.4918 164.179 87.5158C165.139 88.4758 165.843 89.6278 166.291 90.9718C166.803 92.3158 167.059 93.9158 167.059 95.7718C167.059 98.4598 166.547 100.828 165.523 102.876C164.499 104.924 163.059 106.62 161.203 107.964C159.411 109.308 157.267 110.3 154.771 110.94C152.275 111.644 149.555 111.996 146.611 111.996C144.435 111.996 142.451 111.836 140.659 111.516C138.931 111.26 137.395 110.94 136.051 110.556C134.771 110.172 133.683 109.788 132.787 109.404C131.955 108.956 131.315 108.604 130.867 108.348L134.323 101.052C134.771 101.308 135.379 101.628 136.147 102.012C136.979 102.396 137.939 102.78 139.027 103.164C140.179 103.548 141.427 103.868 142.771 104.124C144.115 104.38 145.523 104.508 146.995 104.508ZM174.077 110.748L191.645 37.7878L200.957 36.2518L194.813 61.4998C196.285 60.9878 197.821 60.5718 199.421 60.2518C201.085 59.9318 202.749 59.7718 204.413 59.7718C207.293 59.7718 209.757 60.1878 211.805 61.0198C213.917 61.7878 215.613 62.8758 216.893 64.2838C218.173 65.6278 219.101 67.2918 219.677 69.2758C220.317 71.1958 220.637 73.3078 220.637 75.6118C220.637 78.4278 220.189 81.6278 219.293 85.2118L213.149 110.748H204.221L209.885 87.1318C210.333 85.3398 210.749 83.5158 211.133 81.6598C211.581 79.8038 211.805 78.0438 211.805 76.3798C211.805 73.8198 211.101 71.7078 209.693 70.0438C208.285 68.3158 205.661 67.4518 201.821 67.4518C200.285 67.4518 198.685 67.6118 197.021 67.9318C195.421 68.1878 194.077 68.5718 192.989 69.0838L183.005 110.748H174.077Z" fill="#252525"/>
<path d="M174.296 110.748L191.864 37.7878L201.176 36.2518L195.032 61.4998C196.504 60.9878 198.04 60.5718 199.64 60.2518C201.304 59.9318 202.968 59.7718 204.632 59.7718C207.512 59.7718 209.976 60.1878 212.024 61.0198C214.136 61.7878 215.832 62.8758 217.112 64.2838C218.392 65.6278 219.32 67.2918 219.896 69.2758C220.536 71.1958 220.856 73.3078 220.856 75.6118C220.856 78.4278 220.408 81.6278 219.512 85.2118L213.368 110.748H204.44L210.104 87.1318C210.552 85.3398 210.968 83.5158 211.352 81.6598C211.8 79.8038 212.024 78.0438 212.024 76.3798C212.024 73.8198 211.32 71.7078 209.912 70.0438C208.504 68.3158 205.88 67.4518 202.04 67.4518C200.504 67.4518 198.904 67.6118 197.24 67.9318C195.64 68.1878 194.296 68.5718 193.208 69.0838L183.224 110.748H174.296Z" fill="#252525"/>
<path d="M191.619 37.8133L174.051 110.773H182.979L192.963 69.1093L194.787 61.5253L200.931 36.2773L191.619 37.8133Z" fill="#5F53EF"/>
</svg>
